# xmcd
#
# Track frame offsets: 
#        150
#        12652
#        26662
#        36730
#        47515
#        60512
#        71562
#        84387
#        96235
#        108720
#        121432
#
# Disc length: 1785 seconds
#
# Revision: 3
# Processed by: cddbd v1.5.2PL0 Copyright (c) Steve Scherf et al.
# Submitted via: ExactAudioCopy v0.90b4
#
DISCID=9906f70b
DTITLE=Various Artist - 40's Hits Country (great records of the decade)
DYEAR=1900
DGENRE=Country
TTITLE0=Tex Williams - Smoke Smoke Smoke
TTITLE1=Tennessee Ernie Ford - Mule Train
TTITLE2=Margaret Whiting and Jimmy Wakely - Slippin' Around
TTITLE3=Merle Travis - Divorce Me C.O.D
TTITLE4=Al Dexter - Pistol Packin' Mama
TTITLE5=Hank Thompson - Humpty Dumpty Heart
TTITLE6=Tex Ritter - I got Spurs (Jingle Jingle Jingle)
TTITLE7=Jimmie Davis - You Are My Sunshine
TTITLE8=Leon Payne - I Love You Because
TTITLE9=Jack Gurthrie - Oklahoma Hills
TTITLE10=Jimmy Wakely - One Has My Name (The Other Has My Heart)
EXTD=ID3G: 2
EXTT0=
EXTT1=
EXTT2=
EXTT3=
EXTT4=
EXTT5=
EXTT6=
EXTT7=
EXTT8=
EXTT9=
EXTT10=
PLAYORDER=
